<?xml version="1.0" encoding="UTF-8"?>
<svg xmlns="http://www.w3.org/2000/svg"
     width="180mm" height="170mm"
     viewBox="0 0 180 170">
  <path d="M 24.830 21.317 L 21.891 21.317 L 21.427 22.645 L 19.536 22.645 L 22.236 15.355 L 24.479 15.355 L 27.179 22.645 L 25.290 22.645 L 24.830 21.317 Z M 22.360 19.964 L 24.357 19.964 L 23.360 17.064 L 22.360 19.964 Z" fill="black"/>  <circle cx="20.83" cy="30.10" r="1.3" fill="black"/>  <rect x="24.63" y="26.50" width="2.4" height="7.20" rx="1" fill="black"/>  <path d="M 50.378 18.178 Q 50.823 18.178 51.052 17.983 Q 51.281 17.788 51.281 17.406 Q 51.281 17.030 51.052 16.833 Q 50.823 16.634 50.378 16.634 L 49.339 16.634 L 49.339 18.178 L 50.378 18.178 Z M 50.442 21.366 Q 51.008 21.366 51.294 21.127 Q 51.580 20.887 51.580 20.405 Q 51.580 19.930 51.297 19.694 Q 51.014 19.456 50.442 19.456 L 49.339 19.456 L 49.339 21.366 L 50.442 21.366 Z M 52.191 18.744 Q 52.795 18.920 53.127 19.394 Q 53.459 19.867 53.459 20.555 Q 53.459 21.609 52.747 22.128 Q 52.034 22.645 50.578 22.645 L 47.459 22.645 L 47.459 15.355 L 50.281 15.355 Q 51.800 15.355 52.481 15.814 Q 53.163 16.273 53.163 17.284 Q 53.163 17.816 52.913 18.189 Q 52.664 18.562 52.191 18.744 Z" fill="black"/>  <rect x="41.30" y="26.50" width="2.4" height="7.20" rx="1" fill="black"/>  <circle cx="47.50" cy="30.10" r="1.3" fill="black"/>  <circle cx="52.50" cy="30.10" r="1.3" fill="black"/>  <circle cx="57.50" cy="30.10" r="1.3" fill="black"/>  <path d="M 80.017 22.240 Q 79.498 22.509 78.937 22.645 Q 78.376 22.782 77.765 22.782 Q 75.943 22.782 74.879 21.763 Q 73.815 20.745 73.815 19.002 Q 73.815 17.254 74.879 16.237 Q 75.943 15.218 77.765 15.218 Q 78.376 15.218 78.937 15.355 Q 79.498 15.491 80.017 15.760 L 80.017 17.268 Q 79.493 16.912 78.985 16.746 Q 78.478 16.580 77.917 16.580 Q 76.910 16.580 76.334 17.226 Q 75.759 17.870 75.759 19.002 Q 75.759 20.130 76.334 20.776 Q 76.910 21.420 77.917 21.420 Q 78.478 21.420 78.985 21.254 Q 79.493 21.087 80.017 20.730 L 80.017 22.240 Z" fill="black"/>  <rect x="67.97" y="26.50" width="2.4" height="7.20" rx="1" fill="black"/>  <circle cx="74.17" cy="30.10" r="1.3" fill="black"/>  <rect x="77.97" y="26.50" width="2.4" height="7.20" rx="1" fill="black"/>  <circle cx="84.17" cy="30.10" r="1.3" fill="black"/>  <path d="M 102.243 16.777 L 102.243 21.225 L 102.916 21.225 Q 104.068 21.225 104.676 20.653 Q 105.285 20.081 105.285 18.992 Q 105.285 17.909 104.679 17.344 Q 104.074 16.777 102.916 16.777 L 102.243 16.777 Z M 100.363 15.355 L 102.344 15.355 Q 104.005 15.355 104.818 15.592 Q 105.630 15.828 106.211 16.395 Q 106.724 16.889 106.972 17.534 Q 107.222 18.178 107.222 18.992 Q 107.222 19.819 106.972 20.466 Q 106.724 21.113 106.211 21.605 Q 105.626 22.172 104.805 22.409 Q 103.985 22.645 102.344 22.645 L 100.363 22.645 L 100.363 15.355 Z" fill="black"/>  <rect x="97.13" y="26.50" width="2.4" height="7.20" rx="1" fill="black"/>  <circle cx="103.33" cy="30.10" r="1.3" fill="black"/>  <circle cx="108.33" cy="30.10" r="1.3" fill="black"/>  <path d="M 127.870 15.355 L 132.941 15.355 L 132.941 16.777 L 129.749 16.777 L 129.749 18.133 L 132.752 18.133 L 132.752 19.555 L 129.749 19.555 L 129.749 21.225 L 133.049 21.225 L 133.049 22.645 L 127.870 22.645 L 127.870 15.355 Z" fill="black"/>  <circle cx="130.00" cy="30.10" r="1.3" fill="black"/>  <path d="M 154.590 15.355 L 159.662 15.355 L 159.662 16.777 L 156.470 16.777 L 156.470 18.133 L 159.473 18.133 L 159.473 19.555 L 156.470 19.555 L 156.470 22.645 L 154.590 22.645 L 154.590 15.355 Z" fill="black"/>  <circle cx="149.17" cy="30.10" r="1.3" fill="black"/>  <circle cx="154.17" cy="30.10" r="1.3" fill="black"/>  <rect x="157.97" y="26.50" width="2.4" height="7.20" rx="1" fill="black"/>  <circle cx="164.17" cy="30.10" r="1.3" fill="black"/>  <path d="M 27.068 52.098 Q 26.365 52.440 25.609 52.612 Q 24.853 52.782 24.047 52.782 Q 22.225 52.782 21.161 51.763 Q 20.097 50.745 20.097 49.002 Q 20.097 47.240 21.179 46.229 Q 22.264 45.218 24.150 45.218 Q 24.876 45.218 25.542 45.355 Q 26.209 45.491 26.800 45.760 L 26.800 47.268 Q 26.190 46.923 25.587 46.752 Q 24.984 46.580 24.378 46.580 Q 23.256 46.580 22.648 47.209 Q 22.040 47.835 22.040 49.002 Q 22.040 50.159 22.626 50.790 Q 23.212 51.420 24.290 51.420 Q 24.584 51.420 24.836 51.384 Q 25.087 51.346 25.287 51.268 L 25.287 49.852 L 24.139 49.852 L 24.139 48.591 L 27.068 48.591 L 27.068 52.098 Z" fill="black"/>  <rect x="17.13" y="56.50" width="2.4" height="7.20" rx="1" fill="black"/>  <rect x="22.13" y="56.50" width="2.4" height="7.20" rx="1" fill="black"/>  <circle cx="28.33" cy="60.10" r="1.3" fill="black"/>  <path d="M 47.193 45.355 L 49.073 45.355 L 49.073 48.133 L 51.846 48.133 L 51.846 45.355 L 53.726 45.355 L 53.726 52.645 L 51.846 52.645 L 51.846 49.555 L 49.073 49.555 L 49.073 52.645 L 47.193 52.645 L 47.193 45.355 Z" fill="black"/>  <circle cx="42.50" cy="60.10" r="1.3" fill="black"/>  <circle cx="47.50" cy="60.10" r="1.3" fill="black"/>  <circle cx="52.50" cy="60.10" r="1.3" fill="black"/>  <circle cx="57.50" cy="60.10" r="1.3" fill="black"/>  <path d="M 76.186 45.355 L 78.066 45.355 L 78.066 52.645 L 76.186 52.645 L 76.186 45.355 Z" fill="black"/>  <circle cx="74.17" cy="60.10" r="1.3" fill="black"/>  <circle cx="79.17" cy="60.10" r="1.3" fill="black"/>  <path d="M 103.133 44.354 L 105.013 44.354 L 105.013 50.937 Q 105.013 52.299 104.272 52.973 Q 103.533 53.646 102.033 53.646 L 101.654 53.646 L 101.654 52.226 L 101.946 52.226 Q 102.532 52.226 102.832 51.898 Q 103.133 51.571 103.133 50.937 L 103.133 44.354 Z" fill="black"/>  <circle cx="95.83" cy="60.10" r="1.3" fill="black"/>  <rect x="99.63" y="56.50" width="2.4" height="7.20" rx="1" fill="black"/>  <rect x="104.63" y="56.50" width="2.4" height="7.20" rx="1" fill="black"/>  <rect x="109.63" y="56.50" width="2.4" height="7.20" rx="1" fill="black"/>  <path d="M 126.893 45.355 L 128.773 45.355 L 128.773 48.016 L 131.482 45.355 L 133.665 45.355 L 130.154 48.808 L 134.026 52.645 L 131.673 52.645 L 128.773 49.773 L 128.773 52.645 L 126.893 52.645 L 126.893 45.355 Z" fill="black"/>  <rect x="123.80" y="56.50" width="2.4" height="7.20" rx="1" fill="black"/>  <circle cx="130.00" cy="60.10" r="1.3" fill="black"/>  <rect x="133.80" y="56.50" width="2.4" height="7.20" rx="1" fill="black"/>  <path d="M 154.536 45.355 L 156.416 45.355 L 156.416 51.225 L 159.716 51.225 L 159.716 52.645 L 154.536 52.645 L 154.536 45.355 Z" fill="black"/>  <circle cx="149.17" cy="60.10" r="1.3" fill="black"/>  <rect x="152.97" y="56.50" width="2.4" height="7.20" rx="1" fill="black"/>  <circle cx="159.17" cy="60.10" r="1.3" fill="black"/>  <circle cx="164.17" cy="60.10" r="1.3" fill="black"/>  <path d="M 19.738 75.355 L 22.130 75.355 L 23.790 79.256 L 25.460 75.355 L 27.847 75.355 L 27.847 82.645 L 26.071 82.645 L 26.071 77.312 L 24.391 81.244 L 23.199 81.244 L 21.519 77.312 L 21.519 82.645 L 19.738 82.645 L 19.738 75.355 Z" fill="black"/>  <rect x="19.63" y="86.50" width="2.4" height="7.20" rx="1" fill="black"/>  <rect x="24.63" y="86.50" width="2.4" height="7.20" rx="1" fill="black"/>  <path d="M 47.193 75.355 L 49.291 75.355 L 51.943 80.355 L 51.943 75.355 L 53.726 75.355 L 53.726 82.645 L 51.626 82.645 L 48.974 77.645 L 48.974 82.645 L 47.193 82.645 L 47.193 75.355 Z" fill="black"/>  <rect x="46.30" y="86.50" width="2.4" height="7.20" rx="1" fill="black"/>  <circle cx="52.50" cy="90.10" r="1.3" fill="black"/>  <path d="M 76.916 76.580 Q 76.057 76.580 75.583 77.215 Q 75.110 77.849 75.110 79.002 Q 75.110 80.149 75.583 80.785 Q 76.057 81.420 76.916 81.420 Q 77.780 81.420 78.253 80.785 Q 78.727 80.149 78.727 79.002 Q 78.727 77.849 78.253 77.215 Q 77.780 76.580 76.916 76.580 Z M 76.916 75.218 Q 78.674 75.218 79.669 76.224 Q 80.666 77.229 80.666 79.002 Q 80.666 80.770 79.669 81.776 Q 78.674 82.782 76.916 82.782 Q 75.163 82.782 74.164 81.776 Q 73.166 80.770 73.166 79.002 Q 73.166 77.229 74.164 76.224 Q 75.163 75.218 76.916 75.218 Z" fill="black"/>  <rect x="70.47" y="86.50" width="2.4" height="7.20" rx="1" fill="black"/>  <rect x="75.47" y="86.50" width="2.4" height="7.20" rx="1" fill="black"/>  <rect x="80.47" y="86.50" width="2.4" height="7.20" rx="1" fill="black"/>  <path d="M 100.793 75.355 L 103.911 75.355 Q 105.304 75.355 106.047 75.973 Q 106.793 76.591 106.793 77.733 Q 106.793 78.881 106.047 79.498 Q 105.304 80.116 103.911 80.116 L 102.672 80.116 L 102.672 82.645 L 100.793 82.645 L 100.793 75.355 Z M 102.672 76.717 L 102.672 78.753 L 103.711 78.753 Q 104.258 78.753 104.557 78.487 Q 104.855 78.222 104.855 77.733 Q 104.855 77.245 104.557 76.981 Q 104.258 76.717 103.711 76.717 L 102.672 76.717 Z" fill="black"/>  <circle cx="95.83" cy="90.10" r="1.3" fill="black"/>  <rect x="99.63" y="86.50" width="2.4" height="7.20" rx="1" fill="black"/>  <rect x="104.63" y="86.50" width="2.4" height="7.20" rx="1" fill="black"/>  <circle cx="110.83" cy="90.10" r="1.3" fill="black"/>  <path d="M 130.449 82.112 L 130.302 82.112 Q 128.501 82.112 127.499 81.117 Q 126.499 80.120 126.499 78.344 Q 126.499 76.570 127.498 75.566 Q 128.496 74.559 130.249 74.559 Q 132.021 74.559 133.010 75.556 Q 133.999 76.552 133.999 78.344 Q 133.999 79.573 133.474 80.463 Q 132.949 81.352 131.963 81.800 L 133.432 83.441 L 131.640 83.441 L 130.449 82.112 Z M 130.249 75.922 Q 129.390 75.922 128.916 76.556 Q 128.443 77.191 128.443 78.344 Q 128.443 79.516 128.905 80.139 Q 129.370 80.761 130.249 80.761 Q 131.113 80.761 131.587 80.127 Q 132.060 79.491 132.060 78.344 Q 132.060 77.191 131.587 76.556 Q 131.113 75.922 130.249 75.922 Z" fill="black"/>  <rect x="121.30" y="86.50" width="2.4" height="7.20" rx="1" fill="black"/>  <rect x="126.30" y="86.50" width="2.4" height="7.20" rx="1" fill="black"/>  <circle cx="132.50" cy="90.10" r="1.3" fill="black"/>  <rect x="136.30" y="86.50" width="2.4" height="7.20" rx="1" fill="black"/>  <path d="M 156.506 78.588 Q 157.096 78.588 157.353 78.369 Q 157.609 78.148 157.609 77.645 Q 157.609 77.147 157.353 76.933 Q 157.096 76.717 156.506 76.717 L 155.715 76.717 L 155.715 78.588 L 156.506 78.588 Z M 155.715 79.886 L 155.715 82.645 L 153.835 82.645 L 153.835 75.355 L 156.706 75.355 Q 158.146 75.355 158.817 75.839 Q 159.489 76.322 159.489 77.367 Q 159.489 78.089 159.139 78.553 Q 158.790 79.017 158.087 79.237 Q 158.473 79.325 158.778 79.636 Q 159.084 79.945 159.396 80.575 L 160.417 82.645 L 158.415 82.645 L 157.526 80.834 Q 157.257 80.287 156.981 80.088 Q 156.706 79.886 156.246 79.886 L 155.715 79.886 Z" fill="black"/>  <circle cx="151.67" cy="90.10" r="1.3" fill="black"/>  <rect x="155.47" y="86.50" width="2.4" height="7.20" rx="1" fill="black"/>  <circle cx="161.67" cy="90.10" r="1.3" fill="black"/>  <path d="M 26.089 105.579 L 26.089 107.123 Q 25.489 106.854 24.917 106.718 Q 24.347 106.580 23.839 106.580 Q 23.165 106.580 22.842 106.766 Q 22.520 106.951 22.520 107.341 Q 22.520 107.635 22.737 107.799 Q 22.954 107.962 23.526 108.079 L 24.326 108.240 Q 25.542 108.485 26.054 108.984 Q 26.568 109.480 26.568 110.399 Q 26.568 111.604 25.853 112.193 Q 25.137 112.782 23.667 112.782 Q 22.975 112.782 22.276 112.649 Q 21.578 112.518 20.879 112.259 L 20.879 110.673 Q 21.578 111.043 22.229 111.232 Q 22.881 111.420 23.487 111.420 Q 24.103 111.420 24.429 111.215 Q 24.756 111.009 24.756 110.627 Q 24.756 110.287 24.534 110.101 Q 24.312 109.915 23.648 109.768 L 22.920 109.607 Q 21.826 109.373 21.320 108.860 Q 20.815 108.348 20.815 107.479 Q 20.815 106.390 21.518 105.804 Q 22.222 105.218 23.540 105.218 Q 24.142 105.218 24.776 105.309 Q 25.411 105.399 26.089 105.579 Z" fill="black"/>  <circle cx="18.33" cy="120.10" r="1.3" fill="black"/>  <circle cx="23.33" cy="120.10" r="1.3" fill="black"/>  <circle cx="28.33" cy="120.10" r="1.3" fill="black"/>  <path d="M 46.665 105.355 L 53.384 105.355 L 53.384 106.777 L 50.966 106.777 L 50.966 112.645 L 49.087 112.645 L 49.087 106.777 L 46.665 106.777 L 46.665 105.355 Z" fill="black"/>  <rect x="48.80" y="116.50" width="2.4" height="7.20" rx="1" fill="black"/>  <path d="M 73.985 105.284 L 75.864 105.284 L 75.864 109.654 Q 75.864 110.557 76.160 110.946 Q 76.455 111.334 77.124 111.334 Q 77.797 111.334 78.092 110.946 Q 78.388 110.557 78.388 109.654 L 78.388 105.284 L 80.267 105.284 L 80.267 109.654 Q 80.267 111.202 79.491 111.960 Q 78.716 112.716 77.124 112.716 Q 75.536 112.716 74.760 111.960 Q 73.985 111.202 73.985 109.654 L 73.985 105.284 Z" fill="black"/>  <circle cx="71.67" cy="120.10" r="1.3" fill="black"/>  <circle cx="76.67" cy="120.10" r="1.3" fill="black"/>  <rect x="80.47" y="116.50" width="2.4" height="7.20" rx="1" fill="black"/>  <path d="M 99.536 105.355 L 101.427 105.355 L 103.360 110.736 L 105.290 105.355 L 107.179 105.355 L 104.479 112.645 L 102.236 112.645 L 99.536 105.355 Z" fill="black"/>  <circle cx="95.83" cy="120.10" r="1.3" fill="black"/>  <circle cx="100.83" cy="120.10" r="1.3" fill="black"/>  <circle cx="105.83" cy="120.10" r="1.3" fill="black"/>  <rect x="109.63" y="116.50" width="2.4" height="7.20" rx="1" fill="black"/>  <path d="M 124.940 105.355 L 126.741 105.355 L 128.001 110.653 L 129.251 105.355 L 131.062 105.355 L 132.312 110.653 L 133.573 105.355 L 135.359 105.355 L 133.640 112.645 L 131.473 112.645 L 130.149 107.103 L 128.841 112.645 L 126.673 112.645 L 124.940 105.355 Z" fill="black"/>  <circle cx="125.00" cy="120.10" r="1.3" fill="black"/>  <rect x="128.80" y="116.50" width="2.4" height="7.20" rx="1" fill="black"/>  <rect x="133.80" y="116.50" width="2.4" height="7.20" rx="1" fill="black"/>  <path d="M 157.893 108.925 L 160.421 112.645 L 158.464 112.645 L 156.760 110.155 L 155.070 112.645 L 153.103 112.645 L 155.632 108.925 L 153.199 105.355 L 155.164 105.355 L 156.760 107.703 L 158.351 105.355 L 160.324 105.355 L 157.893 108.925 Z" fill="black"/>  <rect x="147.97" y="116.50" width="2.4" height="7.20" rx="1" fill="black"/>  <circle cx="154.17" cy="120.10" r="1.3" fill="black"/>  <circle cx="159.17" cy="120.10" r="1.3" fill="black"/>  <rect x="162.97" y="116.50" width="2.4" height="7.20" rx="1" fill="black"/>  <path d="M 19.615 135.355 L 21.671 135.355 L 23.332 137.953 L 24.991 135.355 L 27.052 135.355 L 24.274 139.573 L 24.274 142.645 L 22.394 142.645 L 22.394 139.573 L 19.615 135.355 Z" fill="black"/>  <rect x="14.63" y="146.50" width="2.4" height="7.20" rx="1" fill="black"/>  <circle cx="20.83" cy="150.10" r="1.3" fill="black"/>  <rect x="24.63" y="146.50" width="2.4" height="7.20" rx="1" fill="black"/>  <rect x="29.63" y="146.50" width="2.4" height="7.20" rx="1" fill="black"/>  <path d="M 47.160 135.355 L 53.288 135.355 L 53.288 136.492 L 49.377 141.225 L 53.401 141.225 L 53.401 142.645 L 47.049 142.645 L 47.049 141.508 L 50.960 136.777 L 47.160 136.777 L 47.160 135.355 Z" fill="black"/>  <rect x="41.30" y="146.50" width="2.4" height="7.20" rx="1" fill="black"/>  <rect x="46.30" y="146.50" width="2.4" height="7.20" rx="1" fill="black"/>  <circle cx="52.50" cy="150.10" r="1.3" fill="black"/>  <circle cx="57.50" cy="150.10" r="1.3" fill="black"/>
</svg>