<?xml version="1.0" encoding="UTF-8"?>
<svg xmlns="http://www.w3.org/2000/svg"
     width="30mm" height="30mm"
     viewBox="0 0 30 30">
  <rect x="0" y="0" width="30" height="30" rx="5" ry="5" fill="black"/>  <rect x="1.2" y="1.2" width="27.6" height="27.6" rx="4" ry="4" fill="white"/>  <path d="M 3.715 5.010 L 5.151 5.010 L 6.146 7.350 L 7.148 5.010 L 8.581 5.010 L 8.581 9.384 L 7.515 9.384 L 7.515 6.184 L 6.507 8.543 L 5.792 8.543 L 4.784 6.184 L 4.784 9.384 L 3.715 9.384 L 3.715 5.010 Z M 11.684 5.748 Q 11.168 5.748 10.884 6.129 Q 10.600 6.510 10.600 7.201 Q 10.600 7.890 10.884 8.271 Q 11.168 8.652 11.684 8.652 Q 12.202 8.652 12.486 8.271 Q 12.770 7.890 12.770 7.201 Q 12.770 6.510 12.486 6.129 Q 12.202 5.748 11.684 5.748 Z M 11.684 4.931 Q 12.739 4.931 13.336 5.535 Q 13.934 6.137 13.934 7.201 Q 13.934 8.262 13.336 8.865 Q 12.739 9.469 11.684 9.469 Q 10.632 9.469 10.033 8.865 Q 9.434 8.262 9.434 7.201 Q 9.434 6.137 10.033 5.535 Q 10.632 4.931 11.684 4.931 Z M 16.389 6.949 Q 16.743 6.949 16.897 6.818 Q 17.051 6.686 17.051 6.384 Q 17.051 6.085 16.897 5.956 Q 16.743 5.827 16.389 5.827 L 15.914 5.827 L 15.914 6.949 L 16.389 6.949 Z M 15.914 7.728 L 15.914 9.384 L 14.787 9.384 L 14.787 5.010 L 16.509 5.010 Q 17.373 5.010 17.775 5.300 Q 18.179 5.590 18.179 6.217 Q 18.179 6.650 17.969 6.929 Q 17.759 7.207 17.338 7.339 Q 17.569 7.392 17.752 7.578 Q 17.936 7.764 18.123 8.142 L 18.735 9.384 L 17.534 9.384 L 17.001 8.297 Q 16.840 7.969 16.674 7.849 Q 16.509 7.728 16.233 7.728 L 15.914 7.728 Z M 22.450 5.147 L 22.450 6.074 Q 22.090 5.912 21.747 5.831 Q 21.405 5.748 21.100 5.748 Q 20.696 5.748 20.502 5.860 Q 20.309 5.970 20.309 6.205 Q 20.309 6.381 20.439 6.480 Q 20.569 6.577 20.912 6.647 L 21.392 6.744 Q 22.122 6.891 22.429 7.190 Q 22.738 7.488 22.738 8.040 Q 22.738 8.762 22.308 9.116 Q 21.879 9.469 20.997 9.469 Q 20.581 9.469 20.162 9.390 Q 19.743 9.311 19.324 9.155 L 19.324 8.204 Q 19.743 8.426 20.134 8.539 Q 20.525 8.652 20.889 8.652 Q 21.258 8.652 21.454 8.529 Q 21.650 8.405 21.650 8.176 Q 21.650 7.972 21.517 7.860 Q 21.384 7.749 20.986 7.661 L 20.549 7.564 Q 19.892 7.424 19.589 7.116 Q 19.286 6.809 19.286 6.287 Q 19.286 5.634 19.708 5.282 Q 20.130 4.931 20.921 4.931 Q 21.282 4.931 21.662 4.985 Q 22.043 5.040 22.450 5.147 Z M 23.728 5.010 L 26.771 5.010 L 26.771 5.863 L 24.856 5.863 L 24.856 6.676 L 26.658 6.676 L 26.658 7.530 L 24.856 7.530 L 24.856 8.532 L 26.836 8.532 L 26.836 9.384 L 23.728 9.384 L 23.728 5.010 Z" fill="black"/>  <circle cx="10.60" cy="11.50" r="0.35" fill="#bbb"/>  <circle cx="12.80" cy="11.50" r="0.35" fill="#bbb"/>  <circle cx="15.00" cy="11.50" r="0.35" fill="#bbb"/>  <circle cx="17.20" cy="11.50" r="0.35" fill="#bbb"/>  <circle cx="19.40" cy="11.50" r="0.35" fill="#bbb"/>  <circle cx="10.60" cy="13.70" r="0.35" fill="#bbb"/>  <circle cx="12.80" cy="13.70" r="0.85" fill="black"/>  <circle cx="15.00" cy="13.70" r="0.35" fill="#bbb"/>  <circle cx="17.20" cy="13.70" r="0.85" fill="black"/>  <circle cx="19.40" cy="13.70" r="0.35" fill="#bbb"/>  <circle cx="10.60" cy="15.90" r="0.35" fill="#bbb"/>  <circle cx="12.80" cy="15.90" r="0.35" fill="#bbb"/>  <circle cx="15.00" cy="15.90" r="0.35" fill="#bbb"/>  <circle cx="17.20" cy="15.90" r="0.35" fill="#bbb"/>  <circle cx="19.40" cy="15.90" r="0.35" fill="#bbb"/>  <circle cx="10.60" cy="18.10" r="0.85" fill="black"/>  <circle cx="12.80" cy="18.10" r="0.35" fill="#bbb"/>  <circle cx="15.00" cy="18.10" r="0.35" fill="#bbb"/>  <circle cx="17.20" cy="18.10" r="0.35" fill="#bbb"/>  <circle cx="19.40" cy="18.10" r="0.85" fill="black"/>  <circle cx="10.60" cy="20.30" r="0.35" fill="#bbb"/>  <circle cx="12.80" cy="20.30" r="0.85" fill="black"/>  <circle cx="15.00" cy="20.30" r="0.85" fill="black"/>  <circle cx="17.20" cy="20.30" r="0.85" fill="black"/>  <circle cx="19.40" cy="20.30" r="0.35" fill="#bbb"/>  <path d="M 7.478 26.944 Q 7.167 27.105 6.831 27.187 Q 6.494 27.269 6.128 27.269 Q 5.034 27.269 4.396 26.658 Q 3.758 26.047 3.758 25.001 Q 3.758 23.952 4.396 23.342 Q 5.034 22.731 6.128 22.731 Q 6.494 22.731 6.831 22.813 Q 7.167 22.895 7.478 23.056 L 7.478 23.961 Q 7.164 23.747 6.860 23.648 Q 6.555 23.548 6.218 23.548 Q 5.615 23.548 5.269 23.935 Q 4.924 24.322 4.924 25.001 Q 4.924 25.678 5.269 26.065 Q 5.615 26.452 6.218 26.452 Q 6.555 26.452 6.860 26.352 Q 7.164 26.252 7.478 26.038 L 7.478 26.944 Z M 10.411 23.548 Q 9.895 23.548 9.611 23.929 Q 9.327 24.310 9.327 25.001 Q 9.327 25.690 9.611 26.071 Q 9.895 26.452 10.411 26.452 Q 10.929 26.452 11.213 26.071 Q 11.497 25.690 11.497 25.001 Q 11.497 24.310 11.213 23.929 Q 10.929 23.548 10.411 23.548 Z M 10.411 22.731 Q 11.466 22.731 12.063 23.335 Q 12.661 23.937 12.661 25.001 Q 12.661 26.062 12.063 26.665 Q 11.466 27.269 10.411 27.269 Q 9.359 27.269 8.760 26.665 Q 8.161 26.062 8.161 25.001 Q 8.161 23.937 8.760 23.335 Q 9.359 22.731 10.411 22.731 Z M 14.641 23.663 L 14.641 26.332 L 15.046 26.332 Q 15.736 26.332 16.101 25.989 Q 16.467 25.645 16.467 24.992 Q 16.467 24.342 16.103 24.003 Q 15.740 23.663 15.046 23.663 L 14.641 23.663 Z M 13.514 22.810 L 14.702 22.810 Q 15.699 22.810 16.186 22.952 Q 16.674 23.094 17.023 23.434 Q 17.330 23.730 17.479 24.117 Q 17.629 24.504 17.629 24.992 Q 17.629 25.488 17.479 25.876 Q 17.330 26.264 17.023 26.560 Q 16.671 26.900 16.179 27.042 Q 15.687 27.184 14.702 27.184 L 13.514 27.184 L 13.514 22.810 Z M 18.494 22.810 L 21.537 22.810 L 21.537 23.663 L 19.622 23.663 L 19.622 24.476 L 21.424 24.476 L 21.424 25.330 L 19.622 25.330 L 19.622 26.332 L 21.602 26.332 L 21.602 27.184 L 18.494 27.184 L 18.494 22.810 Z M 24.195 24.749 Q 24.549 24.749 24.703 24.618 Q 24.857 24.486 24.857 24.184 Q 24.857 23.885 24.703 23.756 Q 24.549 23.627 24.195 23.627 L 23.721 23.627 L 23.721 24.749 L 24.195 24.749 Z M 23.721 25.528 L 23.721 27.184 L 22.593 27.184 L 22.593 22.810 L 24.315 22.810 Q 25.179 22.810 25.582 23.100 Q 25.985 23.390 25.985 24.017 Q 25.985 24.450 25.775 24.729 Q 25.566 25.007 25.144 25.139 Q 25.375 25.192 25.558 25.378 Q 25.742 25.564 25.929 25.942 L 26.542 27.184 L 25.341 27.184 L 24.807 26.097 Q 24.646 25.769 24.480 25.649 Q 24.315 25.528 24.039 25.528 L 23.721 25.528 Z" fill="black"/>
</svg>